<?xml version="1.0" standalone="no"?>
<!DOCTYPE svg PUBLIC "-//W3C//DTD SVG 20010904//EN"
 "http://www.w3.org/TR/2001/REC-SVG-20010904/DTD/svg10.dtd">
<svg version="1.0" xmlns="http://www.w3.org/2000/svg"
 width="1080.000000pt" height="1080.000000pt" viewBox="0 0 1080.000000 1080.000000"
 preserveAspectRatio="xMidYMid meet">
<metadata>
Created by potrace 1.16, written by Peter Selinger 2001-2019
</metadata>
<g transform="translate(0.000000,1080.000000) scale(0.100000,-0.100000)"
fill="#000000" stroke="none">
<path d="M5387 7554 c-4 -4 -7 -20 -7 -36 0 -24 -4 -28 -29 -28 -16 0 -80 -16
-142 -35 -115 -35 -173 -46 -136 -24 21 12 22 38 2 45 -19 8 -45 -13 -45 -34
0 -8 7 -24 16 -34 16 -17 13 -28 -47 -183 -50 -128 -68 -165 -82 -165 -28 0
-4 -34 39 -55 28 -13 57 -16 140 -13 102 3 104 4 136 36 29 29 31 32 12 32
-18 0 -31 25 -86 167 l-65 168 56 12 c31 6 88 19 126 27 101 22 100 23 102
-29 1 -25 -2 -45 -7 -45 -6 0 -10 -11 -10 -25 0 -14 -5 -25 -12 -25 -9 0 -9
-3 0 -12 7 -7 12 -24 12 -39 0 -15 5 -29 11 -31 7 -2 7 -63 1 -198 -10 -200
-20 -250 -53 -250 -9 0 -22 -7 -29 -15 -7 -8 -23 -15 -35 -15 -34 0 -55 -10
-55 -26 0 -12 36 -14 205 -14 169 0 205 2 205 14 0 16 -21 26 -55 26 -12 0
-28 7 -35 15 -7 8 -20 15 -29 15 -33 0 -43 50 -53 250 -6 135 -6 196 1 198 6
2 11 16 11 31 0 15 5 32 12 39 9 9 9 12 0 12 -7 0 -12 11 -12 25 0 14 -4 25
-10 25 -5 0 -8 20 -7 45 2 52 1 51 102 29 39 -8 95 -21 126 -27 l56 -12 -65
-168 c-55 -142 -68 -167 -86 -167 -19 0 -17 -3 12 -32 32 -32 34 -33 136 -36
83 -3 112 0 140 13 43 21 67 55 39 55 -14 0 -32 37 -82 165 -60 155 -63 166
-47 183 9 10 16 26 16 34 0 21 -26 42 -45 34 -20 -7 -19 -33 3 -45 36 -22 -22
-11 -137 24 -62 19 -126 35 -142 35 -24 0 -28 4 -31 32 -3 31 -25 48 -41 32z
m-317 -359 l0 -145 -55 0 c-36 0 -55 4 -55 12 0 14 101 278 106 278 2 0 4 -65
4 -145z m130 -136 c0 -5 -25 -9 -55 -9 l-55 0 0 148 1 147 54 -138 c30 -77 55
-143 55 -148z m520 136 l0 -145 -55 0 c-30 0 -55 3 -55 8 0 8 104 282 108 282
1 0 2 -65 2 -145z m79 10 c28 -72 51 -136 51 -142 0 -9 -18 -13 -55 -13 l-55
0 0 147 c0 80 2 144 4 142 3 -2 27 -63 55 -134z"/>
<path d="M3050 5263 l0 -1370 158 -7 c986 -44 1579 -185 2043 -487 70 -45 109
-60 109 -41 0 4 -20 41 -45 80 -272 442 -833 710 -1667 797 -81 8 -157 15
-168 15 -20 0 -20 3 -22 1152 l-3 1152 -85 17 c-47 10 -128 25 -180 34 -52 9
-105 19 -117 22 l-23 5 0 -1369z"/>
<path d="M7700 6623 c-72 -13 -327 -64 -342 -69 -17 -5 -18 -69 -18 -1154 l0
-1148 -82 -7 c-633 -52 -1134 -211 -1462 -463 -77 -59 -194 -176 -243 -244
-45 -61 -113 -170 -113 -181 0 -19 40 -2 133 57 470 294 1044 428 2020 472
l157 7 0 1368 c0 1089 -3 1369 -12 1368 -7 -1 -24 -4 -38 -6z"/>
</g>
</svg>
